<svg xmlns="http://www.w3.org/2000/svg" viewBox="0 0 1200 780" role="img" aria-labelledby="t d">
 <title id="t">ZEAL Thermal Response administrator page reference mock-up</title><desc id="d">A reference-only mock-up with ZEAL navigation, a room selector, learning status, current and forecast temperature information, and a forecast-aware response graph.</desc>
 <rect width="1200" height="780" fill="#f7f7f7"/><rect width="1200" height="108" fill="#fff"/><rect x="24" y="18" width="42" height="42" rx="10" fill="#f57c00"/><path d="M45 28C38 37 35 41 35 47a10 10 0 0020 0c0-6-3-10-10-19zm0 9c3 5 5 7 5 10a5 5 0 01-10 0c0-3 2-5 5-10z" fill="#fff"/><text x="78" y="39" font-family="Arial" font-size="23" font-weight="700" fill="#202124">ZEAL</text><text x="78" y="57" font-family="Arial" font-size="10" fill="#5f6368">Zoned, Efficient, Adaptive, Learning</text>
 <g font-family="Arial" font-size="13" fill="#5f6368"><text x="30" y="94">Overview</text><text x="115" y="94">Schedule</text><text x="200" y="94">Overrides</text><text x="290" y="94" fill="#0288d1" font-weight="700">Learning</text><text x="370" y="94">Setup</text></g><line x1="282" y1="106" x2="350" y2="106" stroke="#0288d1" stroke-width="3"/>
 <text x="28" y="147" font-family="Arial" font-size="25" font-weight="700" fill="#202124">Thermal Response</text><text x="28" y="170" font-family="Arial" font-size="13" fill="#5f6368">Administrator-only room response, evidence and forecast-aware optimum-start planning.</text><rect x="1002" y="132" width="168" height="38" rx="4" fill="#fff" stroke="#c7c7c7"/><text x="1017" y="156" font-family="Arial" font-size="13" fill="#202124">Room: Lounge ▾</text>
 <rect x="28" y="192" width="1144" height="148" rx="9" fill="#fff" stroke="#d6d6d6"/><text x="48" y="221" font-family="Arial" font-size="15" font-weight="700" fill="#202124">Lounge · Model established</text><text x="48" y="244" font-family="Arial" font-size="12" fill="#5f6368">18 valid heating episodes · Confidence: Medium · Last updated 06:00</text>
 <g font-family="Arial"><text x="48" y="280" font-size="11" fill="#5f6368">CURRENT ROOM</text><text x="48" y="307" font-size="24" font-weight="700" fill="#202124">18°C</text><text x="230" y="280" font-size="11" fill="#5f6368">OUTSIDE NOW</text><text x="230" y="307" font-size="24" font-weight="700" fill="#202124">−2°C</text><text x="230" y="325" font-size="10" fill="#5f6368">Local outdoor sensor</text><text x="410" y="280" font-size="11" fill="#5f6368">NEXT TARGET</text><text x="410" y="307" font-size="24" font-weight="700" fill="#202124">22°C · 07:00</text><text x="630" y="280" font-size="11" fill="#5f6368">FORECAST IN WARM-UP</text><text x="630" y="307" font-size="24" font-weight="700" fill="#00897b">3°C to 5°C</text><text x="630" y="325" font-size="10" fill="#5f6368">Pirate Weather</text><text x="858" y="280" font-size="11" fill="#5f6368">ESTIMATED WARM-UP</text><text x="858" y="307" font-size="24" font-weight="700" fill="#f57c00">50 minutes</text><text x="1030" y="280" font-size="11" fill="#5f6368">START</text><text x="1030" y="307" font-size="24" font-weight="700" fill="#f57c00">06:10</text></g>
 <rect x="28" y="360" width="1144" height="356" rx="9" fill="#fff" stroke="#d6d6d6"/><text x="48" y="393" font-family="Arial" font-size="15" font-weight="700" fill="#202124">Predicted response · Last 24 hours</text><g font-family="Arial" font-size="11" fill="#5f6368"><text x="940" y="393">24 hours</text><text x="1010" y="393">7 days</text><text x="1070" y="393">30 days</text></g><line x1="932" y1="401" x2="990" y2="401" stroke="#0288d1" stroke-width="2"/>
 <rect x="72" y="425" width="1055" height="230" fill="#fafafa" stroke="#e0e0e0"/><g stroke="#e5e7eb"><path d="M72 610H1127M72 550H1127M72 490H1127M72 430H1127"/><path d="M72 425V655M424 425V655M776 425V655M1127 425V655"/></g><g font-family="Arial" font-size="10" fill="#5f6368"><text x="44" y="614">18°C</text><text x="44" y="554">20°C</text><text x="44" y="494">22°C</text><text x="72" y="672" text-anchor="middle">05:30</text><text x="424" y="672" text-anchor="middle">06:00</text><text x="776" y="672" text-anchor="middle">06:30</text><text x="1127" y="672" text-anchor="middle">07:00</text></g><path d="M72 610H496" fill="none" stroke="#1a73e8" stroke-width="4"/><path d="M496 610C650 590 760 525 900 492S1050 490 1127 490" fill="none" stroke="#f57c00" stroke-width="5"/><line x1="72" y1="490" x2="1127" y2="490" stroke="#8e24aa" stroke-width="3" stroke-dasharray="8 5"/><line x1="496" y1="425" x2="496" y2="655" stroke="#f57c00" stroke-width="2" stroke-dasharray="5 5"/><text x="508" y="447" font-family="Arial" font-size="11" font-weight="700" fill="#e65100">Start 06:10</text><path d="M72 638L424 630L776 605L1127 580" fill="none" stroke="#00897b" stroke-width="3" stroke-dasharray="7 4"/>
 <text x="28" y="754" font-family="Arial" font-size="12" font-weight="700" fill="#b3261e">REFERENCE ONLY — navigation, spacing, wording and graph styling remain subject to implementation review.</text>
</svg>
